<?xml version="1.0" standalone="no"?>
<!DOCTYPE svg PUBLIC "-//W3C//DTD SVG 20010904//EN"
 "http://www.w3.org/TR/2001/REC-SVG-20010904/DTD/svg10.dtd">
<svg version="1.0" xmlns="http://www.w3.org/2000/svg"
 width="669.000000pt" height="669.000000pt" viewBox="0 0 669.000000 669.000000"
 preserveAspectRatio="xMidYMid meet">
<metadata>
Created by potrace 1.14, written by Peter Selinger 2001-2017
</metadata>
<g transform="translate(0.000000,669.000000) scale(0.100000,-0.100000)"
fill="#000000" stroke="none">
<path d="M2520 6174 c-52 -14 -102 -27 -110 -31 -8 -3 -20 -7 -27 -9 -6 -1
-94 -25 -195 -52 -101 -28 -271 -74 -378 -102 -107 -29 -307 -83 -445 -120
-137 -37 -259 -70 -270 -73 -11 -3 -78 -21 -149 -41 -70 -20 -134 -36 -141
-36 -24 0 -27 -36 -21 -268 4 -125 8 -326 11 -447 2 -121 7 -314 10 -430 3
-115 7 -338 10 -495 7 -381 14 -688 21 -895 10 -311 11 -388 13 -620 1 -126 5
-235 9 -241 4 -7 50 -15 107 -18 55 -4 123 -9 150 -11 28 -2 91 -7 140 -10
131 -8 254 -16 305 -20 25 -2 92 -7 150 -10 58 -3 130 -7 160 -10 78 -6 180
-14 290 -20 52 -3 115 -8 140 -10 25 -2 97 -7 160 -10 63 -4 126 -8 140 -10
14 -2 81 -7 150 -11 69 -5 132 -9 140 -10 8 0 39 -2 68 -3 45 -1 52 -4 52 -21
0 -13 -11 -25 -32 -34 -54 -23 -101 -42 -138 -56 -19 -7 -59 -23 -88 -36 -29
-13 -57 -24 -62 -24 -6 0 -10 -4 -10 -10 0 -5 -3 -9 -7 -8 -18 3 -60 -22 -88
-53 -26 -30 -30 -41 -30 -99 0 -65 14 -260 20 -270 7 -12 23 -319 30 -585 4
-146 1 -174 -41 -315 -32 -110 -43 -149 -49 -180 -2 -14 -12 -52 -20 -85 -34
-132 -39 -225 -16 -269 l14 -26 1385 0 1384 0 -6 23 c-3 12 -9 69 -13 125 -3
57 -11 109 -17 115 -7 7 -23 28 -36 47 -13 19 -39 51 -57 70 -18 19 -33 40
-34 45 0 6 -2 19 -5 30 -2 11 -7 47 -10 80 -4 33 -13 73 -21 88 -8 16 -12 31
-9 34 3 3 -1 18 -10 34 -8 16 -14 31 -14 34 0 3 0 6 -1 8 0 1 -2 15 -4 31 -2
16 -9 52 -15 80 -7 28 -14 64 -16 81 -2 16 -7 38 -10 47 -3 10 -7 28 -9 40 -2
13 -7 46 -11 73 -4 28 -8 52 -9 55 0 3 -5 32 -9 65 -9 69 -15 117 -22 160 -11
68 -14 93 -19 145 -2 30 -7 78 -9 105 -3 28 -8 84 -11 125 -3 41 -7 84 -9 95
-3 11 -5 28 -5 38 -1 9 -18 34 -40 55 -21 20 -44 54 -50 74 -12 35 -34 52 -62
46 -8 -2 -14 10 -16 32 -2 19 -5 40 -8 47 -4 13 18 18 110 27 28 3 120 12 205
21 85 8 182 18 215 21 33 3 76 7 95 9 19 2 64 7 100 10 36 3 76 8 90 10 14 2
63 7 109 10 47 4 92 8 100 10 9 1 50 6 91 9 41 4 86 9 100 11 14 2 59 7 100
10 100 8 121 11 146 19 24 8 22 -29 29 496 7 486 8 525 19 539 8 11 8 13 -1 8
-9 -5 -11 59 -8 267 1 150 5 278 9 284 3 6 3 13 -2 16 -4 2 -5 32 -2 65 3 34
3 61 -1 61 -3 0 -3 20 1 45 4 25 3 45 -2 45 -5 0 -6 6 -1 13 8 13 12 537 3
537 -3 0 -5 60 -6 133 -2 257 -13 512 -23 540 -6 15 -17 27 -26 27 -8 0 -15 5
-15 12 0 6 -2 9 -6 6 -3 -3 -41 10 -86 28 -45 19 -88 36 -97 38 -9 2 -23 6
-31 9 -24 9 -90 29 -103 31 -7 1 -17 5 -23 8 -6 4 -21 9 -35 12 -13 3 -55 14
-94 25 -160 44 -302 82 -324 87 -14 3 -57 14 -97 25 -40 11 -81 22 -91 24 -10
2 -47 12 -83 20 -36 9 -72 18 -80 20 -8 2 -44 10 -80 19 -101 23 -221 48 -285
59 -16 3 -53 10 -82 16 -29 6 -74 13 -100 17 -26 3 -51 8 -54 10 -3 1 -28 6
-55 9 -27 3 -69 10 -94 15 -25 5 -58 11 -75 14 -16 2 -37 7 -45 10 -8 3 -32 8
-53 11 -21 3 -104 16 -185 30 -80 14 -152 23 -158 21 -7 -3 -15 -2 -19 2 -4 4
-10 7 -13 8 -13 0 -117 16 -132 19 -20 4 -134 22 -190 30 -24 4 -47 8 -51 11
-4 2 -42 6 -85 9 -44 3 -108 8 -144 12 -36 3 -74 7 -85 8 -11 1 -39 7 -63 14
-23 7 -47 9 -52 6 -6 -3 -10 -2 -10 4 0 6 -13 9 -30 7 -16 -2 -27 1 -24 5 5 8
-49 13 -128 12 -15 0 -25 4 -22 9 9 14 -47 7 -146 -18z"/>
</g>
</svg>
